<svg id="visual" viewBox="0 0 960 540" width="960" height="540" xmlns="http://www.w3.org/2000/svg" xmlns:xlink="http://www.w3.org/1999/xlink" version="1.1"><path d="M0 340L22.8 346.5C45.7 353 91.3 366 137 380.3C182.7 394.7 228.3 410.3 274 413.5C319.7 416.7 365.3 407.3 411.2 393.8C457 380.3 503 362.7 548.8 364.5C594.7 366.3 640.3 387.7 686 407.3C731.7 427 777.3 445 823 441.2C868.7 437.3 914.3 411.7 937.2 398.8L960 386L960 541L937.2 541C914.3 541 868.7 541 823 541C777.3 541 731.7 541 686 541C640.3 541 594.7 541 548.8 541C503 541 457 541 411.2 541C365.3 541 319.7 541 274 541C228.3 541 182.7 541 137 541C91.3 541 45.7 541 22.8 541L0 541Z" fill="#272b2d" stroke-linecap="round" stroke-linejoin="miter"></path></svg>